<svg xmlns="http://www.w3.org/2000/svg" width="432" height="432" viewBox="0 0 432 432">
  <rect width="100%" height="100%" fill="#ffffff"/>
  <g transform="translate(216,216)" stroke-linecap="round">
    <!-- Outer hexagon -->
    <polygon points="77.94,-45.00 77.94,45.00 0.00,90.00 -77.94,45.00 -77.94,-45.00 -0.00,-90.00" fill="none" stroke="#1772d0" stroke-width="4"/>
    
    <!-- Connections -->
    <g stroke="#1772d0" stroke-width="2">
      <circle cx="0.00" cy="-55.00" r="5" fill="#1772d0"/>
      <circle cx="48.00" cy="-28.00" r="5" fill="#1772d0"/>
      <circle cx="48.00" cy="28.00" r="5" fill="#1772d0"/>
      <circle cx="0.00" cy="55.00" r="5" fill="#1772d0"/>
      <circle cx="-48.00" cy="28.00" r="5" fill="#1772d0"/>
      <circle cx="-48.00" cy="-28.00" r="5" fill="#1772d0"/>
      <line x1="0" y1="0" x2="0.00" y2="-55.00"/>
      <line x1="0" y1="0" x2="48.00" y2="-28.00"/>
      <line x1="0" y1="0" x2="48.00" y2="28.00"/>
      <line x1="0" y1="0" x2="0.00" y2="55.00"/>
      <line x1="0" y1="0" x2="-48.00" y2="28.00"/>
      <line x1="0" y1="0" x2="-48.00" y2="-28.00"/>
    </g>
    <g stroke="#0ea5e9" stroke-width="1.5">
      <line x1="0.00" y1="-55.00" x2="48.00" y2="28.00"/>
      <line x1="48.00" y1="-28.00" x2="0.00" y2="55.00"/>
      <line x1="48.00" y1="28.00" x2="-48.00" y2="28.00"/>
      <line x1="0.00" y1="55.00" x2="-48.00" y2="-28.00"/>
      <line x1="-48.00" y1="28.00" x2="0.00" y2="-55.00"/>
      <line x1="-48.00" y1="-28.00" x2="48.00" y2="-28.00"/>
    </g>
    <circle cx="0" cy="0" r="8" fill="#111827"/>
  </g>
</svg>