<?xml version="1.0" standalone="no"?><!DOCTYPE svg PUBLIC "-//W3C//DTD SVG 1.1//EN" "http://www.w3.org/Graphics/SVG/1.1/DTD/svg11.dtd"><svg t="1779005363433" class="icon" viewBox="0 0 1024 1024" version="1.1" xmlns="http://www.w3.org/2000/svg" p-id="11181" xmlns:xlink="http://www.w3.org/1999/xlink" width="200" height="200"><path d="M492.333176 152.32c-5.933176-16.805647-7.273412-33.611294-7.529411-50.432 0.225882-16.805647 1.566118-33.611294 7.529411-50.416941 5.978353 16.805647 7.303529 33.611294 7.529412 50.416941-0.256 16.820706-1.581176 33.626353-7.529412 50.432z" fill="#D1DAFE" p-id="11182"></path><path d="M259.297882 286.343529h46.381177v104.658824h-46.381177c-17.769412 0-32.225882-14.456471-32.225882-32.225882v-40.207059c0-17.769412 14.456471-32.225882 32.225882-32.225883zM757.579294 318.569412v40.207059c0 17.769412-14.305882 32.225882-32.225882 32.225882h-46.230588v-104.658824h46.230588c17.92 0 32.225882 14.456471 32.225882 32.225883zM544.662588 165.722353v30.268235h-104.658823v-30.268235c0-17.769412 14.456471-32.225882 32.225882-32.225882h40.207059c17.769412 0 32.225882 14.456471 32.225882 32.225882z" fill="#4269C4" p-id="11183"></path><path d="M669.967059 527.239529s24.154353 6.113882 53.910588 51.33553c17.648941 26.834824 29.259294 57.133176 35.960471 88.545882 10.420706 48.820706 15.314824 118.287059-41.306353 118.211765-34.168471-0.075294-43.399529-49.814588-42.465883-114.401882zM314.744471 527.239529s-24.139294 6.113882-53.910589 51.33553c-17.648941 26.834824-29.244235 57.133176-35.96047 88.545882-10.405647 48.820706-15.299765 118.287059 41.306353 118.211765 34.183529-0.075294 43.414588-49.814588 42.465882-114.401882z" fill="#8A9BEA" p-id="11184"></path><path d="M708.502588 324.743529v27.858824c0 71.228235-57.675294 128.752941-128.752941 128.752941h-174.682353a128.602353 128.602353 0 0 1-128.752941-128.752941v-27.858824c0-71.077647 57.524706-128.752941 128.752941-128.752941h174.682353c71.077647 0 128.752941 57.675294 128.752941 128.752941z" fill="#D1DAFE" p-id="11185"></path><path d="M708.457412 324.848941v27.858824c0 71.077647-57.675294 128.752941-128.752941 128.752941h-174.682353c-32.978824 0-63.247059-12.498824-85.835294-32.828235 31.623529 6.927059 65.957647 10.691765 101.797647 10.691764 150.437647 0 274.070588-66.409412 286.418823-151.04 0.752941 5.421176 1.054118 10.992941 1.054118 16.564706z" fill="#8A9BEA" p-id="11186"></path><path d="M642.635294 338.627765v0.165647a90.895059 90.895059 0 0 1-90.804706 90.804706h-118.964706a90.895059 90.895059 0 0 1-90.774588-90.804706v-0.150588a90.895059 90.895059 0 0 1 90.789647-90.804706h118.964706a90.895059 90.895059 0 0 1 90.804706 90.804706z" fill="#4269C4" p-id="11187"></path><path d="M437.308235 308.224c0 13.763765-7.333647 24.771765-16.278588 24.771765s-16.173176-11.008-16.173176-24.771765c0-13.658353 7.228235-24.666353 16.173176-24.666353s16.278588 11.008 16.278588 24.666353zM579.870118 308.224c0 13.763765-7.333647 24.771765-16.293647 24.771765-8.944941 0-16.173176-11.008-16.173177-24.771765 0-13.658353 7.228235-24.666353 16.173177-24.666353 8.96 0 16.293647 11.008 16.293647 24.666353z" fill="#3A3A3A" p-id="11188"></path><path d="M544.707765 373.353412c-4.638118 9.110588-12.498824 16.564706-21.729883 21.594353-9.216 5.195294-19.922824 7.695059-30.614588 7.830588-10.691765-0.120471-21.398588-2.620235-30.629647-7.800471-9.246118-5.044706-17.091765-12.498824-21.714823-21.62447 17.874824 9.441882 34.740706 14.456471 52.34447 14.381176 17.588706 0.105412 34.484706-4.909176 52.344471-14.381176z" fill="#255299" p-id="11189"></path><path d="M672.361412 540.672l11.971764 149.383529c5.270588 65.581176-46.531765 121.705412-112.323764 121.705412H412.702118c-65.776941 0-117.579294-56.124235-112.323765-121.690353l11.986823-149.398588a64.391529 64.391529 0 0 1 64.180706-59.241412h231.619765a64.391529 64.391529 0 0 1 64.195765 59.241412z" fill="#D1DAFE" p-id="11190"></path><path d="M412.717176 751.525647a51.892706 51.892706 0 0 1-38.550588-16.865882 51.907765 51.907765 0 0 1-13.748706-39.785412l11.986824-149.383529a4.171294 4.171294 0 0 1 4.141176-3.824942h231.634824c2.138353 0 3.960471 1.671529 4.141176 3.824942l11.971765 149.383529a51.892706 51.892706 0 0 1-13.733647 39.770353 51.892706 51.892706 0 0 1-38.550588 16.880941H412.717176z" fill="#4269C4" p-id="11191"></path><path d="M578.349176 586.119529v68.969412c0 9.035294-7.228235 16.263529-16.263529 16.26353h-138.691765c-9.035294 0-16.263529-7.228235-16.263529-16.26353v-68.969412c0-9.035294 7.228235-16.414118 16.263529-16.414117h138.691765c9.035294 0 16.263529 7.378824 16.263529 16.414117z" fill="#FFFFFF" p-id="11192"></path><path d="M437.820235 700.250353m-16.956235 0a16.956235 16.956235 0 1 0 33.912471 0 16.956235 16.956235 0 1 0-33.912471 0Z" fill="#255299" p-id="11193"></path><path d="M495.932235 700.250353m-16.956235 0a16.956235 16.956235 0 1 0 33.912471 0 16.956235 16.956235 0 1 0-33.912471 0Z" fill="#255299" p-id="11194"></path><path d="M554.044235 700.250353m-16.956235 0a16.956235 16.956235 0 1 0 33.912471 0 16.956235 16.956235 0 1 0-33.912471 0Z" fill="#255299" p-id="11195"></path><path d="M434.627765 704.496941m-16.956236 0a16.956235 16.956235 0 1 0 33.912471 0 16.956235 16.956235 0 1 0-33.912471 0Z" fill="#FBAD3E" p-id="11196"></path><path d="M492.739765 704.496941m-16.956236 0a16.956235 16.956235 0 1 0 33.912471 0 16.956235 16.956235 0 1 0-33.912471 0Z" fill="#AEC46E" p-id="11197"></path><path d="M550.851765 704.496941m-16.956236 0a16.956235 16.956235 0 1 0 33.912471 0 16.956235 16.956235 0 1 0-33.912471 0Z" fill="#B53016" p-id="11198"></path><path d="M492.363294 30.343529c12.875294 0 23.341176 10.450824 23.341177 23.341177 0 12.875294-10.465882 23.190588-23.341177 23.190588-12.875294 0-23.341176-10.315294-23.341176-23.190588 0-12.890353 10.465882-23.341176 23.341176-23.341177z" fill="#B53016" p-id="11199"></path><path d="M828.506353 584.056471l-32.978824 325.421176a38.4 38.4 0 0 1-38.249411 34.635294h-493.176471a38.4 38.4 0 0 1-38.249412-34.635294l-32.978823-325.421176a38.550588 38.550588 0 0 1 38.249412-42.465883h558.983529c22.889412 0 40.658824 19.727059 38.4 42.465883z" fill="#51504F" p-id="11200"></path><path d="M581.014588 750.637176c0 38.821647-31.533176 70.189176-70.339764 70.189177s-70.354824-31.367529-70.354824-70.174118c0-38.836706 31.533176-70.354824 70.354824-70.354823s70.324706 31.518118 70.324705 70.339764z" fill="#3A3A3A" p-id="11201"></path><path d="M581.014588 750.697412c0 38.701176-31.472941 70.174118-70.324706 70.174117a69.722353 69.722353 0 0 1-56.169411-28.16c3.011765 0.150588 6.324706 0.301176 9.487058 0.301177 50.145882 0 93.816471-20.48 116.555295-50.748235 0.301176 2.710588 0.451765 5.571765 0.451764 8.432941z" fill="#2D2D2D" p-id="11202"></path><path d="M844.769882 965.195294c0 15.811765-12.649412 28.461176-28.461176 28.461177h-611.237647c-15.811765 0-28.611765-12.649412-28.611765-28.461177 0-15.811765 12.8-28.611765 28.611765-28.611765h611.237647c15.811765 0 28.461176 12.8 28.461176 28.611765z" fill="#3A3A3A" p-id="11203"></path><path d="M45.884235 158.042353c1.054118 50.206118 51.230118 89.901176 112.097883 88.621176a129.099294 129.099294 0 0 0 48.444235-10.375529 5.872941 5.872941 0 0 1 5.330823 0.361412 108.272941 108.272941 0 0 0 35.343059 13.131294c5.797647 1.054118 9.456941-6.249412 5.104941-10.194824a94.780235 94.780235 0 0 1-14.320941-16.399058 6.038588 6.038588 0 0 1 0.858353-7.890824c17.573647-16.519529 28.054588-38.279529 27.557647-61.921882-1.054118-50.296471-51.230118-89.991529-112.173176-88.696471-60.867765 1.28-109.312 43.068235-108.242824 93.364706z" fill="#AEC46E" p-id="11204"></path><path d="M252.250353 239.540706c4.321882 3.975529 0.677647 11.264-5.12 10.24a108.845176 108.845176 0 0 1-35.388235-13.101177 5.571765 5.571765 0 0 0-5.345883-0.331294 130.665412 130.665412 0 0 1-48.459294 10.345412c-41.637647 0.903529-78.275765-17.392941-97.505882-45.161412 19.802353 7.966118 42.676706 12.408471 67.132235 12.408471 70.083765 0 127.759059-36.864 134.475294-83.968 2.605176 7.393882 4.096 15.239529 4.321883 23.446588 0.451765 23.536941-10.014118 45.387294-27.648 61.891765a6.053647 6.053647 0 0 0-0.798118 7.830588c3.764706 5.571765 8.538353 11.158588 14.336 16.399059z" fill="#617F4D" p-id="11205"></path><path d="M84.811294 183.536941c11.881412 3.358118 23.762824 5.12 35.644235 6.324706a352.090353 352.090353 0 0 0 71.273412 0.030118c11.896471-1.204706 23.762824-2.966588 35.644235-6.354824-11.881412-3.388235-23.762824-5.165176-35.644235-6.354823a352.090353 352.090353 0 0 0-71.28847 0.030117c-11.866353 1.204706-23.747765 2.951529-35.629177 6.324706zM84.811294 127.578353c11.881412 3.358118 23.762824 5.12 35.644235 6.324706a352.090353 352.090353 0 0 0 71.273412 0.030117c11.896471-1.204706 23.762824-2.966588 35.644235-6.354823-11.881412-3.388235-23.762824-5.165176-35.644235-6.354824a352.090353 352.090353 0 0 0-71.28847 0.030118c-11.866353 1.204706-23.747765 2.951529-35.629177 6.324706z" fill="#FFFFFF" p-id="11206"></path><path d="M978.115765 430.366118c-1.054118 50.206118-51.230118 89.916235-112.097883 88.636235a129.099294 129.099294 0 0 1-48.444235-10.390588 5.872941 5.872941 0 0 0-5.330823 0.361411 108.272941 108.272941 0 0 1-35.343059 13.131295c-5.797647 1.054118-9.456941-6.234353-5.104941-10.194824 5.812706-5.270588 10.511059-10.872471 14.320941-16.384a6.038588 6.038588 0 0 0-0.858353-7.905882c-17.573647-16.504471-28.054588-38.279529-27.557647-61.921883 1.054118-50.281412 51.230118-89.991529 112.173176-88.69647 60.867765 1.28 109.312 43.068235 108.242824 93.364706z" fill="#FBAD3E" p-id="11207"></path><path d="M771.749647 511.849412c-4.321882 3.990588-0.677647 11.279059 5.12 10.24a108.845176 108.845176 0 0 0 35.388235-13.071059 5.571765 5.571765 0 0 1 5.345883-0.346353c14.456471 6.264471 30.945882 9.893647 48.459294 10.360471 41.637647 0.903529 78.275765-17.408 97.505882-45.176471-19.802353 7.981176-42.676706 12.408471-67.132235 12.408471-70.083765 0-127.759059-36.864-134.475294-83.968a76.363294 76.363294 0 0 0-4.321883 23.446588c-0.451765 23.552 10.014118 45.387294 27.648 61.891765a6.053647 6.053647 0 0 1 0.798118 7.830588c-3.764706 5.571765-8.538353 11.158588-14.336 16.399059z" fill="#FA990E" p-id="11208"></path><path d="M939.188706 455.860706c-11.881412 3.373176-23.762824 5.12-35.644235 6.324706a352.105412 352.105412 0 0 1-71.273412 0.030117c-11.896471-1.204706-23.762824-2.966588-35.644235-6.354823 11.881412-3.388235 23.762824-5.150118 35.644235-6.354824a352.090353 352.090353 0 0 1 71.28847 0.030118c11.866353 1.204706 23.747765 2.966588 35.629177 6.324706zM939.188706 399.902118c-11.881412 3.373176-23.762824 5.12-35.644235 6.324706a352.090353 352.090353 0 0 1-71.273412 0.030117c-11.896471-1.204706-23.762824-2.966588-35.644235-6.354823 11.881412-3.388235 23.762824-5.150118 35.644235-6.354824a352.075294 352.075294 0 0 1 71.28847 0.030118c11.866353 1.204706 23.747765 2.966588 35.629177 6.324706z" fill="#FFFFFF" p-id="11209"></path></svg>