<?xml version="1.0" standalone="no"?><!DOCTYPE svg PUBLIC "-//W3C//DTD SVG 1.1//EN" "http://www.w3.org/Graphics/SVG/1.1/DTD/svg11.dtd"><svg t="1779005246791" class="icon" viewBox="0 0 1024 1024" version="1.1" xmlns="http://www.w3.org/2000/svg" p-id="7421" width="200" height="200" xmlns:xlink="http://www.w3.org/1999/xlink"><path d="M832 128H192c-70.7 0-128 57.3-128 128v448c0 70.7 57.3 128 128 128h192l108.8 81.6c11.4 8.5 27 8.5 38.4 0L640 832h192c70.7 0 128-57.3 128-128V256c0-70.7-57.3-128-128-128zM304 528c-26.5 0-48-21.5-48-48s21.5-48 48-48 48 21.5 48 48-21.5 48-48 48z m208 0c-26.5 0-48-21.5-48-48s21.5-48 48-48 48 21.5 48 48-21.5 48-48 48z m208 0c-26.5 0-48-21.5-48-48s21.5-48 48-48 48 21.5 48 48-21.5 48-48 48z" fill="#82529d" p-id="7422"></path></svg>