<?xml version="1.0" standalone="no"?><!DOCTYPE svg PUBLIC "-//W3C//DTD SVG 1.1//EN" "http://www.w3.org/Graphics/SVG/1.1/DTD/svg11.dtd"><svg t="1779005434292" class="icon" viewBox="0 0 1024 1024" version="1.1" xmlns="http://www.w3.org/2000/svg" p-id="13795" xmlns:xlink="http://www.w3.org/1999/xlink" width="200" height="200"><path d="M467.2 896V531.2c-83.2-25.6-128-115.2-102.4-198.4s115.2-128 198.4-102.4 128 115.2 102.4 198.4c-12.8 51.2-57.6 89.6-102.4 102.4V896L512 960l-44.8-64zM448 377.6c0 38.4 25.6 64 64 64s64-25.6 64-64-25.6-64-64-64-64 32-64 64z m-384 0c0-115.2 44.8-230.4 134.4-313.6l44.8 44.8c-147.2 147.2-147.2 390.4 0 544l6.4 6.4-51.2 44.8C115.2 620.8 64 499.2 64 377.6z m716.8 275.2c140.8-140.8 153.6-364.8 25.6-512l44.8-44.8c147.2 179.2 134.4 441.6-25.6 601.6l-44.8-44.8zM192 377.6c0-83.2 32-166.4 96-224l44.8 44.8c-102.4 102.4-102.4 262.4 0 358.4l12.8 12.8-51.2 44.8C230.4 556.8 192 467.2 192 377.6z m499.2 185.6C742.4 512 768 448 768 377.6c0-57.6-19.2-108.8-51.2-153.6l44.8-44.8c102.4 128 89.6 313.6-25.6 428.8l-44.8-44.8z" p-id="13796" fill="#1296db"></path></svg>